<svg width="32" height="32" viewBox="0 0 32 32" fill="none" xmlns="http://www.w3.org/2000/svg">
<path d="M3.01599 4.16211H7.84412C8.3157 4.16229 8.73107 4.49849 8.82751 4.95801L8.99548 5.75195L9.01306 5.83105H9.09314L28.8431 5.89648C28.9872 5.89733 29.1297 5.92993 29.2601 5.99121C29.3904 6.05248 29.5055 6.14167 29.598 6.25195C29.785 6.47583 29.862 6.77073 29.8109 7.05762L27.6605 19.0918C27.5753 19.5627 27.1673 19.9032 26.6908 19.9033L11.1654 19.9316H11.1029L11.0756 19.9873L10.141 21.8906L10.0707 22.0342H28.8402C29.1061 22.0343 29.3616 22.1397 29.5502 22.3271C29.715 22.4911 29.817 22.7064 29.8412 22.9355L29.847 23.0352C29.8466 23.5886 29.3949 24.0369 28.8441 24.0371H25.1039L25.223 24.1973C25.6229 24.7335 25.847 25.3907 25.847 26.0654C25.847 27.779 24.4541 29.1719 22.7406 29.1719C21.0271 29.1719 19.6342 27.779 19.6342 26.0654C19.6336 25.3916 19.8529 24.7356 20.2582 24.1973L20.3783 24.0371H14.9447L15.0638 24.1973C15.4637 24.7334 15.6878 25.3907 15.6879 26.0654C15.6879 27.7789 14.2949 29.1718 12.5814 29.1719C10.8679 29.1719 9.47498 27.779 9.47498 26.0654C9.47441 25.3916 9.69371 24.7356 10.099 24.1973L10.2191 24.0371H8.05603C7.67534 24.037 7.33207 23.8244 7.1615 23.4863L7.16052 23.4854C7.07592 23.3207 7.03907 23.1357 7.05408 22.9512C7.06913 22.7665 7.1352 22.5893 7.24548 22.4404L7.24646 22.4414L7.25134 22.4336L9.58826 18.6182L9.60876 18.584L9.60095 18.5449L7.78552 9.75488L7.04822 6.24805L7.03162 6.16895H3.01599C2.74995 6.16895 2.49415 6.06312 2.30603 5.875C2.11806 5.68698 2.01219 5.43187 2.01208 5.16602C2.01208 4.89997 2.11791 4.64418 2.30603 4.45605C2.49415 4.26793 2.74995 4.16211 3.01599 4.16211ZM12.5814 24.9785C11.9825 24.9785 11.4936 25.4665 11.4935 26.0654C11.4935 26.6644 11.9824 27.1533 12.5814 27.1533C12.8696 27.1533 13.1461 27.0387 13.35 26.835C13.5539 26.631 13.6683 26.3539 13.6683 26.0654C13.6682 25.4666 13.1802 24.9786 12.5814 24.9785ZM22.7406 24.9785C22.1417 24.9785 21.6528 25.4665 21.6527 26.0654C21.6527 26.6644 22.1416 27.1533 22.7406 27.1533C23.0288 27.1533 23.3052 27.0387 23.5092 26.835C23.7131 26.631 23.8285 26.3539 23.8285 26.0654C23.8284 25.4665 23.3395 24.9785 22.7406 24.9785ZM9.45544 7.92676L11.5521 17.8799L11.5687 17.96L11.6498 17.959L25.7845 17.9346H25.8685L25.8832 17.8516L27.6449 7.9834L27.6664 7.86621L27.5472 7.86523L9.5531 7.80664L9.43005 7.80566L9.45544 7.92676Z" fill="#0069B4" stroke="white" stroke-width="0.2"/>
</svg>
